<svg width="1024" height="1024" viewBox="0 0 1024 1024" fill="none" xmlns="http://www.w3.org/2000/svg">
<g clip-path="url(#clip0_74_82)">
<path d="M735.233 715.531L742.912 648.634H778.945L759.157 755.846H713.82L703.778 696.038L692.112 755.846H648.695L628.907 648.634H664.94L672.471 714.645L684.285 648.634H723.715L735.233 715.531Z" fill="white"/>
<path d="M781.573 392.868C705.481 390.445 631.569 388.991 559.838 388.506V768H378.088V388.506C305.873 388.991 232.203 390.445 157.08 392.868V240.198H781.573V392.868ZM467.125 512C467.125 512 419.001 590.646 419 617.456C419 644.266 440.546 666 467.125 666C493.704 666 515.25 644.266 515.25 617.456C515.249 590.647 467.13 512.007 467.125 512ZM467.125 304C467.125 304 419.001 382.646 419 409.456C419 436.266 440.546 458 467.125 458C493.704 458 515.25 436.266 515.25 409.456C515.249 382.647 467.13 304.007 467.125 304Z" fill="white"/>
</g>
<defs>
<clipPath id="clip0_74_82">
<rect width="1024" height="1024" fill="white"/>
</clipPath>
</defs>
</svg>
