<svg width="779" height="632" viewBox="0 0 779 632" fill="none" xmlns="http://www.w3.org/2000/svg">
<path d="M12.9851 631.94C4.32836 631.94 0 629.054 0 623.283C0 617.512 4.0398 613.761 12.1194 612.03L25.1045 609.433C36.6468 607.124 45.3035 601.642 51.0746 592.985C56.8458 583.751 61.7512 571.054 65.791 554.895L199.97 13.8507C201.124 8.07958 202.856 4.32833 205.164 2.59698C208.05 0.865659 210.647 0 212.955 0C215.841 0 218.438 0.865659 220.746 2.59698C223.632 4.32833 225.652 8.07958 226.806 13.8507L363.582 562.686C367.622 578.846 372.239 590.099 377.433 596.448C382.627 602.796 390.706 607.124 401.671 609.433L414.657 612.03C422.736 613.761 426.776 617.512 426.776 623.283C426.776 629.054 422.448 631.94 413.791 631.94H265.761C257.681 631.94 253.642 628.766 253.642 622.418C253.642 616.069 258.547 612.607 268.358 612.03L284.806 610.298C294.617 609.144 300.676 605.97 302.985 600.776C305.871 595.582 305.871 586.637 302.985 573.94L270.089 439.761C266.627 424.756 257.104 417.254 241.522 417.254H150.627C135.622 417.254 126.099 424.756 122.06 439.761L92.6268 555.761C83.9701 588.656 92.6268 606.836 118.597 610.298L131.582 612.03C141.393 613.761 146.298 617.224 146.298 622.418C146.298 628.766 142.259 631.94 134.179 631.94H12.9851ZM148.03 391.283H243.254C252.487 391.283 256.239 386.378 254.507 376.567L199.104 144.567H194.776L136.776 376.567C135.045 386.378 138.796 391.283 148.03 391.283Z" fill="white"/>
<path d="M637.582 302.94C629.602 302.94 623.511 300.425 619.311 295.395C615.111 290.365 613.011 284.706 613.011 278.419C613.011 271.712 614.271 265.635 616.791 260.186C619.731 254.317 622.671 247.82 625.611 240.695C628.972 233.15 631.282 224.138 632.542 213.659C632.962 211.144 632.332 209.677 630.652 209.257C629.392 208.419 627.712 208.838 625.611 210.515C613.011 220.994 604.19 230.635 599.15 239.437C594.53 248.239 588.019 254.946 579.619 259.557C574.159 262.491 568.278 263.539 561.978 262.701C555.678 261.443 550.427 257.461 546.227 250.754C542.447 243.629 541.607 236.922 543.707 230.635C545.807 224.347 549.587 219.736 555.048 216.802C560.928 213.449 567.018 211.563 573.319 211.144C580.039 210.724 587.179 210.096 594.74 209.257C602.72 208.419 611.541 205.904 621.201 201.712C623.721 200.874 624.981 199.617 624.981 197.94C624.981 196.263 623.721 195.006 621.201 194.168C611.541 189.557 602.72 187.042 594.74 186.623C587.179 185.784 580.039 185.156 573.319 184.736C567.018 184.317 560.928 182.431 555.048 179.078C549.587 175.724 545.807 170.904 543.707 164.617C541.607 158.329 542.447 151.832 546.227 145.126C550.427 138.419 555.678 134.437 561.978 133.18C568.278 131.922 574.159 132.97 579.619 136.323C585.499 139.677 590.33 144.078 594.11 149.527C597.89 154.557 602.09 160.216 606.71 166.503C611.331 172.79 617.841 179.287 626.241 185.994C628.342 187.671 630.022 188.09 631.282 187.251C632.542 186.413 632.962 184.736 632.542 182.221C631.282 171.323 628.972 162.311 625.611 155.186C622.671 148.06 619.731 141.563 616.791 135.695C614.271 129.826 613.011 123.748 613.011 117.461C613.011 111.174 615.111 105.515 619.311 100.485C623.511 95.455 629.602 92.94 637.582 92.94C645.562 92.94 651.653 95.455 655.853 100.485C660.053 105.515 662.153 111.174 662.153 117.461C662.153 123.748 660.683 129.826 657.743 135.695C655.223 141.563 652.283 148.06 648.923 155.186C645.983 162.311 643.882 171.323 642.622 182.221C642.202 184.736 642.622 186.413 643.882 187.251C645.563 188.09 647.243 187.671 648.923 185.994C657.743 179.287 664.253 172.79 668.454 166.503C673.074 160.216 677.274 154.557 681.054 149.527C684.835 144.078 689.665 139.677 695.545 136.323C701.005 132.97 706.886 131.922 713.186 133.18C719.486 134.437 724.737 138.419 728.937 145.126C732.717 151.832 733.557 158.329 731.457 164.617C729.357 170.904 725.577 175.724 720.116 179.078C714.236 182.431 707.936 184.317 701.215 184.736C694.915 185.156 687.775 185.784 679.794 186.623C672.234 187.042 663.623 189.557 653.963 194.168C651.443 195.006 650.183 196.263 650.183 197.94C650.183 199.617 651.443 200.874 653.963 201.712C663.623 205.904 672.234 208.419 679.794 209.257C687.775 210.096 694.915 210.724 701.215 211.144C707.936 211.563 714.236 213.449 720.116 216.802C725.577 219.736 729.357 224.347 731.457 230.635C733.557 236.922 732.717 243.629 728.937 250.754C724.737 257.461 719.486 261.443 713.186 262.701C706.886 263.539 701.005 262.491 695.545 259.557C687.565 254.946 681.054 248.239 676.014 239.437C670.974 230.635 662.153 220.994 649.553 210.515C647.873 208.838 646.193 208.419 644.512 209.257C642.832 209.677 642.202 211.144 642.622 213.659C643.882 224.138 645.983 233.15 648.923 240.695C652.283 247.82 655.223 254.317 657.743 260.186C660.683 265.635 662.153 271.712 662.153 278.419C662.153 284.706 660.053 290.365 655.853 295.395C651.653 300.425 645.562 302.94 637.582 302.94Z" fill="white"/>
<path d="M500.082 390.44H763.582" stroke="white" stroke-width="30" stroke-linecap="round"/>
<path d="M687.582 583.397C687.582 610.206 666.092 631.94 639.582 631.94C613.072 631.94 591.582 610.206 591.582 583.397C591.582 556.587 639.582 477.94 639.582 477.94C639.582 477.94 687.582 556.587 687.582 583.397Z" fill="white"/>
</svg>
